#!OML:ASF I:\Actors\actors\Patient Classification 2\Patient 1\Session 1\actor1.ASF
:FULLY-SPECIFIED
:DEGREES
203
root -0.803168 18.702 5.4012 2.48492 -5.38413 -3.96792
lowerback 13.3055 -0.150096 1.06793
upperback 0.393963 0.144229 2.51864
thorax -7.06399 0.0770067 2.03873
lowerneck 1.0399 -4.16574 2.02265
upperneck 0.984404 -5.56918 4.90185
head 0.218984 -2.77271 1.1686
rclavicle -1.70955e-014 2.88238e-014
rhumerus 6.73662 22.4662 -33.9412
rradius 140.691
rwrist -75.5653
rhand 5.23828 -55.0762
rfingers 7.12502
rthumb 30.5972 -82.5536
lclavicle -1.70955e-014 2.88238e-014
lhumerus -45.1183 -1.45505 86.9011
lradius 48.7002
lwrist -2.13435
lhand -8.25943 -25.6035
lfingers 7.12502
lthumb 17.6592 3.61453
rfemur 0 0 0
rtibia 0
rfoot 0 0
rtoes 0
lfemur -8.85198 1.23601 -9.29462
ltibia 26.1694
lfoot -20.8286 10.8926
ltoes -56.9086
204
root -0.790574 18.703 5.39107 2.60169 -5.57706 -3.78439
lowerback 13.4077 -0.153965 0.793316
upperback 0.457501 0.0997416 2.54616
thorax -7.05273 0.0646848 2.23251
lowerneck 1.09464 -4.15109 2.16613
upperneck 0.845447 -5.5376 4.73152
head 0.157884 -2.76084 1.0954
rclavicle -6.90777e-015 -1.35174e-014
rhumerus 7.21999 22.291 -33.3741
rradius 140.964
rwrist -75.9051
rhand 5.04535 -55.0612
rfingers 7.12502
rthumb 30.4132 -82.5729
lclavicle -6.90777e-015 -1.35174e-014
lhumerus -45.0591 -1.60268 87.0118
lradius 48.8783
lwrist -2.00069
lhand -8.36613 -25.6179
lfingers 7.12502
lthumb 17.5565 3.60942
rfemur 0 0 0
rtibia 0
rfoot 0 0
rtoes 0
lfemur -9.01968 1.34885 -9.55369
ltibia 26.1946
lfoot -20.8641 10.9598
ltoes -56.8102
205
root -0.772482 18.7024 5.37878 2.6516 -5.75068 -3.84331
lowerback 13.6432 -0.183615 0.83826
upperback 0.530307 0.0773369 2.63668
thorax -7.10666 0.0536376 2.30962
lowerneck 1.10769 -4.13083 2.23208
upperneck 0.758734 -5.50441 4.63832
head 0.124223 -2.74644 1.05728
rclavicle 3.55825e-014 -2.5842e-015
rhumerus 7.48192 22.101 -33.0704
rradius 141.145
rwrist -76.0607
rhand 5.17827 -55.0831
rfingers 7.12502
rthumb 30.54 -82.5712
lclavicle 3.55825e-014 -2.5842e-015
lhumerus -44.9854 -1.77834 87.1954
lradius 48.9891
lwrist -1.80031
lhand -8.53002 -25.5016
lfingers 7.12502
lthumb 17.3988 3.73975
rfemur 0 0 0
rtibia 0
rfoot 0 0
rtoes 0
lfemur -9.11877 1.59409 -9.54157
ltibia 26.262
lfoot -20.8129 10.8955
ltoes -56.8028
206
root -0.75453 18.7022 5.3657 2.69897 -5.90926 -3.86943
lowerback 13.8863 -0.237902 0.886624
upperback 0.5966 0.0222227 2.70965
thorax -7.17037 0.0263256 2.37306
lowerneck 1.12533 -4.09664 2.19282
upperneck 0.671669 -5.45425 4.60297
head 0.0941059 -2.72387 1.05439
rclavicle -1.18774e-014 2.78299e-015
rhumerus 7.7627 21.9696 -32.8022
rradius 141.311
rwrist -76.0983
rhand 5.18473 -55.0407
rfingers 7.12502
rthumb 30.5462 -82.5277
lclavicle -1.18774e-014 2.78299e-015
lhumerus -44.9413 -1.8276 87.3355
lradius 49.1273
lwrist -1.68838
lhand -8.63491 -25.3922
lfingers 7.12502
lthumb 17.2978 3.85799
rfemur 0 0 0
rtibia 0
rfoot 0 0
rtoes 0
lfemur -9.25563 1.86248 -9.56728
ltibia 26.3942
lfoot -20.7499 10.8028
ltoes -56.8365
207
root -0.736145 18.7009 5.35219 2.73719 -6.04653 -3.9182
lowerback 14.1352 -0.308654 1.02498
upperback 0.672363 -0.042855 2.74509
thorax -7.22665 -0.00953005 2.34775
lowerneck 1.10135 -4.0599 2.1662
upperneck 0.601791 -5.40341 4.6075
head 0.0768551 -2.69998 1.06051
rclavicle 7.60351e-015 -2.10712e-014
rhumerus 8.01854 21.8105 -32.6104
rradius 141.514
rwrist -76.0743
rhand 5.02006 -55.0908
rfingers 7.12502
rthumb 30.3891 -82.6069
lclavicle 7.60351e-015 -2.10712e-014
lhumerus -44.8846 -1.89378 87.4115
lradius 49.3075
lwrist -1.61397
lhand -8.60568 -25.3906
lfingers 7.12502
lthumb 17.326 3.85717
rfemur 0 0 0
rtibia 0
rfoot 0 0
rtoes 0
lfemur -9.40031 2.09555 -9.56863
ltibia 26.5598
lfoot -20.7411 10.7227
ltoes -56.8065
208
root -0.717947 18.699 5.33999 2.72898 -6.22748 -3.99302
lowerback 14.4404 -0.361088 1.15376
upperback 0.746993 -0.0818212 2.79327
thorax -7.31647 -0.0320224 2.33756
lowerneck 1.12615 -4.02546 2.16133
upperneck 0.491347 -5.35146 4.6042
head 0.0384069 -2.6771 1.06237
rclavicle -1.93815e-015 1.23246e-014
rhumerus 8.18848 21.5285 -32.3074
rradius 141.835
rwrist -76.2963
rhand 4.7743 -55.2581
rfingers 7.12502
rthumb 30.1547 -82.8172
lclavicle -1.93815e-015 1.23246e-014
lhumerus -44.9011 -1.96721 87.5085
lradius 49.5089
lwrist -1.50829
lhand -8.70449 -25.5019
lfingers 7.12502
lthumb 17.2309 3.75413
rfemur 0 0 0
rtibia 0
rfoot 0 0
rtoes 0
lfemur -9.47431 2.36658 -9.53536
ltibia 26.7282
lfoot -20.7693 10.6054
ltoes -56.7677
209
root -0.700619 18.697 5.32971 2.68835 -6.44417 -4.03982
lowerback 14.7807 -0.395506 1.21692
upperback 0.797737 -0.103806 2.85779
thorax -7.45181 -0.0435477 2.38002
lowerneck 1.22824 -3.98964 2.13033
upperneck 0.344457 -5.29317 4.56771
head -0.0241703 -2.65285 1.06062
rclavicle -1.15792e-014 -3.53837e-014
rhumerus 8.28902 21.1891 -31.9535
rradius 142.205
rwrist -76.6837
rhand 4.531 -55.2311
rfingers 7.12502
rthumb 29.9225 -82.8323
lclavicle -1.15792e-014 -3.53837e-014
lhumerus -45.0129 -2.01121 87.6517
lradius 49.7094
lwrist -1.35856
lhand -8.87476 -25.6627
lfingers 7.12502
lthumb 17.067 3.60764
rfemur 0 0 0
rtibia 0
rfoot 0 0
rtoes 0
lfemur -9.49443 2.59265 -9.53678
ltibia 26.8948
lfoot -20.8502 10.5254
ltoes -56.736
210
root -0.685353 18.6953 5.31771 2.71034 -6.60499 -4.08007
lowerback 15.0687 -0.439092 1.29807
upperback 0.816322 -0.137239 2.88971
thorax -7.59205 -0.0616672 2.37986
lowerneck 1.3483 -3.97961 2.19342
upperneck 0.183937 -5.26664 4.48581
head -0.0970374 -2.64475 1.0302
rclavicle -9.49197e-015 4.25399e-014
rhumerus 8.45351 20.9982 -31.854
rradius 142.373
rwrist -76.7906
rhand 4.39412 -55.2076
rfingers 7.12502
rthumb 29.7919 -82.8324
lclavicle -9.49197e-015 4.25399e-014
lhumerus -45.103 -2.08468 87.7416
lradius 49.874
lwrist -1.23839
lhand -9.01083 -25.8435
lfingers 7.12502
lthumb 16.936 3.43805
rfemur 0 0 0
rtibia 0
rfoot 0 0
rtoes 0
lfemur -9.59929 2.7706 -9.54065
ltibia 27.0482
lfoot -20.8761 10.5279
ltoes -56.7395
211
root -0.671372 18.6941 5.30611 2.77222 -6.74561 -4.08143
lowerback 15.2804 -0.476541 1.34806
upperback 0.836539 -0.172287 2.89042
thorax -7.68771 -0.0802005 2.36322
lowerneck 1.46227 -3.98058 2.27106
upperneck 0.00892687 -5.25418 4.45256
head -0.17218 -2.64406 1.01266
rclavicle 1.65985e-014 -1.78906e-014
rhumerus 8.57636 20.989 -31.8521
rradius 142.41
rwrist -76.6247
rhand 4.50145 -55.3429
rfingers 7.12502
rthumb 29.8943 -82.9493
lclavicle 1.65985e-014 -1.78906e-014
lhumerus -45.109 -2.14134 87.7958
lradius 49.9589
lwrist -1.21021
lhand -9.18428 -25.9161
lfingers 7.12502
lthumb 16.769 3.37971
rfemur 0 0 0
rtibia 0
rfoot 0 0
rtoes 0
lfemur -9.75098 2.98364 -9.58173
ltibia 27.1844
lfoot -20.8685 10.4838
ltoes -56.705
212
root -0.656776 18.693 5.29864 2.82169 -6.91503 -4.0622
lowerback 15.4354 -0.49254 1.3914
upperback 0.890608 -0.182921 2.89119
thorax -7.71581 -0.0870182 2.34354
lowerneck 1.36639 -3.96589 2.27107
upperneck 0.0168702 -5.23894 4.46309
head -0.153918 -2.63516 1.01337
rclavicle -2.06736e-014 3.02153e-014
rhumerus 8.18204 21.0177 -31.7664
rradius 142.869
rwrist -76.41
rhand 4.67516 -55.5288
rfingers 7.12502
rthumb 30.0601 -83.1052
lclavicle -2.06736e-014 3.02153e-014
lhumerus -45.0526 -2.23999 87.9215
lradius 50.0116
lwrist -1.13841
lhand -9.30795 -25.9069
lfingers 7.12502
lthumb 16.65 3.39896
rfemur 0 0 0
rtibia 0
rfoot 0 0
rtoes 0
lfemur -9.8629 3.24525 -9.65057
ltibia 27.3126
lfoot -20.8985 10.3458
ltoes -56.6185
213
root -0.641413 18.692 5.29269 2.85809 -7.09598 -4.06217
lowerback 15.5814 -0.517515 1.45143
upperback 0.95723 -0.201938 2.90733
thorax -7.72503 -0.0983032 2.33237
lowerneck 1.18783 -3.92533 2.25581
upperneck 0.0915929 -5.19581 4.45968
head -0.102066 -2.60965 1.00922
rclavicle -7.90169e-015 -3.22031e-014
rhumerus 8.21118 20.9005 -31.6087
rradius 142.993
rwrist -76.4427
rhand 4.58951 -55.7284
rfingers 7.12502
rthumb 29.9784 -83.3196
lclavicle -7.90169e-015 -3.22031e-014
lhumerus -45.0949 -2.35209 88.0802
lradius 50.2137
lwrist -1.00088
lhand -9.37349 -25.9317
lfingers 7.12502
lthumb 16.5869 3.37948
rfemur 0 0 0
rtibia 0
rfoot 0 0
rtoes 0
lfemur -9.94612 3.47707 -9.70814
ltibia 27.4388
lfoot -20.9383 10.2994
ltoes -56.6712
214
root -0.627049 18.6903 5.28484 2.87907 -7.27216 -4.08537
lowerback 15.7726 -0.557283 1.5255
upperback 1.00623 -0.235915 2.92062
thorax -7.77807 -0.117179 2.31479
lowerneck 1.13615 -3.89814 2.36686
upperneck 0.0353329 -5.15757 4.32096
head -0.117616 -2.59095 0.947892
rclavicle 1.39149e-015 -3.57812e-015
rhumerus 8.34769 20.8236 -31.5303
rradius 143.011
rwrist -76.4939
rhand 4.44235 -55.8089
rfingers 7.12502
rthumb 29.8379 -83.4254
lclavicle 1.39149e-015 -3.57812e-015
lhumerus -45.193 -2.41356 88.1877
lradius 50.403
lwrist -0.923029
lhand -9.58708 -25.9597
lfingers 7.12502
lthumb 16.3813 3.36853
rfemur 0 0 0
rtibia 0
rfoot 0 0
rtoes 0
lfemur -10.0179 3.63944 -9.73713
ltibia 27.5617
lfoot -20.9871 10.3574
ltoes -56.7707
215
root -0.614583 18.6879 5.27573 2.9153 -7.40429 -4.11787
lowerback 15.9744 -0.600079 1.60868
upperback 1.03224 -0.271792 2.92
thorax -7.86188 -0.13738 2.27836
lowerneck 1.0948 -3.89535 2.55255
upperneck -0.0118625 -5.15099 4.12335
head -0.135018 -2.58785 0.85683
rclavicle 1.64991e-014 -2.62396e-014
rhumerus 8.39361 20.7792 -31.4989
rradius 143.048
rwrist -76.455
rhand 4.42035 -55.8243
rfingers 7.12502
rthumb 29.8169 -83.4445
lclavicle 1.64991e-014 -2.62396e-014
lhumerus -45.1988 -2.43121 88.2482
lradius 50.3715
lwrist -0.949246
lhand -9.90671 -26.0939
lfingers 7.12502
lthumb 16.0735 3.25949
rfemur 0 0 0
rtibia 0
rfoot 0 0
rtoes 0
lfemur -10.1272 3.83939 -9.73556
ltibia 27.6864
lfoot -21.0071 10.3031
ltoes -56.7315
